<?xml version="1.0" encoding="utf-8"?>
<!-- Generator: Adobe Illustrator 14.0.0, SVG Export Plug-In . SVG Version: 6.00 Build 43363)  -->
<!DOCTYPE svg PUBLIC "-//W3C//DTD SVG 1.1//EN" "http://www.w3.org/Graphics/SVG/1.1/DTD/svg11.dtd">
<svg version="1.1" id="Layer_1" xmlns="http://www.w3.org/2000/svg" xmlns:xlink="http://www.w3.org/1999/xlink" x="0px" y="0px"
	 width="500px" height="140px" viewBox="0 0 500 140" enable-background="new 0 0 500 140" xml:space="preserve">
<g>
	<path fill="#EDE4C0" d="M183.003,88.401c-1.272,0.841-2.59,1.522-3.952,2.044c-1.363,0.523-2.737,0.897-4.123,1.125
		c-1.386,0.227-2.691,0.34-3.918,0.34c-2.181,0-4.351-0.318-6.508-0.953c-2.158-0.636-4.088-1.578-5.792-2.828
		c-1.703-1.249-3.09-2.816-4.156-4.702c-1.068-1.885-1.602-4.099-1.602-6.644V59.407c0-2.498,0.511-4.713,1.533-6.645
		c1.022-1.93,2.385-3.543,4.089-4.838c1.703-1.294,3.646-2.271,5.826-2.93c2.181-0.658,4.429-0.988,6.746-0.988
		c2.726,0,5.383,0.375,7.973,1.124c2.589,0.75,4.792,1.92,6.609,3.51l-4.565,7.223c-1.454-1.227-3.066-2.078-4.838-2.555
		c-1.772-0.478-3.453-0.716-5.043-0.716c-1.09,0-2.17,0.148-3.236,0.443c-1.068,0.296-2.022,0.783-2.862,1.465
		c-0.841,0.682-1.533,1.567-2.078,2.657c-0.545,1.091-0.817,2.408-0.817,3.952v13.696c0,1.545,0.249,2.852,0.749,3.919
		c0.499,1.067,1.158,1.941,1.977,2.623c0.817,0.682,1.748,1.182,2.793,1.499c1.045,0.318,2.113,0.478,3.203,0.478
		c0.908,0,1.896-0.125,2.964-0.375c1.067-0.249,2.123-0.807,3.169-1.67v-7.836h-6.814v-7.973h16.149v19.761
		C185.433,86.505,184.275,87.562,183.003,88.401z"/>
	<path fill="#EDE4C0" d="M220.139,81.758h-16.354l-3.066,9.676h-9.949l16.491-46.949h9.539l16.354,46.949h-10.153L220.139,81.758z
		 M206.307,73.921h11.312l-1.84-5.996l-3.68-12.402h-0.272l-3.612,12.198L206.307,73.921z"/>
	<path fill="#EDE4C0" d="M273.631,66.221l-4.35,8.654l-5.303,10.085h-6.729l-5.232-9.881l-4.554-8.858h-0.272v25.213h-9.335V44.484
		h8.586l8.38,16.558l5.656,11.585h0.408l5.725-11.857l8.041-16.285h8.586v46.949h-9.336V66.221H273.631z"/>
	<path fill="#EDE4C0" d="M291.346,44.484h32.367v8.381h-23.031v10.767h19.693v8.382h-19.693v11.038h23.031v8.382h-32.367V44.484z"/>
	<path fill="#EDE4C0" d="M351.514,44.484c2.363,0,4.396,0.442,6.1,1.328s3.111,2.034,4.225,3.441
		c1.113,1.408,1.93,2.987,2.453,4.735c0.521,1.75,0.783,3.465,0.783,5.146c0,1.227-0.17,2.486-0.51,3.781
		c-0.342,1.295-0.842,2.521-1.5,3.68s-1.465,2.227-2.418,3.203c-0.955,0.978-2.045,1.783-3.271,2.419l8.449,19.216H355.74
		c-0.184-0.499-0.467-1.215-0.854-2.146c-0.385-0.931-0.816-1.965-1.293-3.101c-0.479-1.135-0.979-2.327-1.5-3.577
		c-0.523-1.249-1.021-2.441-1.5-3.577c-0.477-1.136-0.908-2.169-1.293-3.101c-0.387-0.931-0.693-1.646-0.92-2.146h-8.451v17.648
		h-9.334V44.484H351.514z M339.93,65.403h9.473c2.18,0,3.816-0.582,4.906-1.747s1.635-2.661,1.635-4.487
		c0-1.827-0.557-3.334-1.67-4.522c-1.113-1.188-2.736-1.781-4.871-1.781h-9.473V65.403z"/>
	<path fill="#EDE4C0" d="M405.551,77.873c0,2.272-0.453,4.282-1.361,6.031c-0.91,1.749-2.17,3.202-3.783,4.36
		c-1.613,1.159-3.51,2.034-5.689,2.624s-4.543,0.886-7.086,0.886c-3.408,0-6.611-0.478-9.609-1.431
		c-2.998-0.954-5.928-2.635-8.789-5.043l5.246-6.814c2.045,1.591,4.168,2.806,6.371,3.646c2.203,0.842,4.396,1.261,6.576,1.261
		c1.498,0,2.77-0.146,3.816-0.442c1.043-0.295,1.885-0.704,2.521-1.227c0.635-0.521,1.1-1.113,1.396-1.771
		c0.295-0.658,0.443-1.329,0.443-2.011c0-1.044-0.264-1.908-0.785-2.589c-0.521-0.682-1.271-1.261-2.248-1.738
		c-0.977-0.477-2.137-0.908-3.475-1.294c-1.342-0.386-2.828-0.807-4.463-1.261c-1.818-0.454-3.557-1.011-5.213-1.67
		c-1.66-0.658-3.125-1.499-4.396-2.521c-1.271-1.021-2.283-2.271-3.031-3.747c-0.75-1.477-1.125-3.26-1.125-5.35
		c0-2.044,0.383-3.929,1.15-5.655c0.766-1.727,1.838-3.214,3.213-4.464c1.375-1.249,3.047-2.225,5.018-2.93
		c1.969-0.704,4.156-1.057,6.564-1.057c2.861-0.045,5.725,0.229,8.586,0.818c2.861,0.591,5.633,1.771,8.312,3.543l-4.088,7.495
		c-2.18-1.316-4.248-2.225-6.201-2.726c-1.953-0.499-3.885-0.749-5.791-0.749c-0.91,0-1.807,0.113-2.691,0.341
		c-0.887,0.228-1.682,0.557-2.387,0.987c-0.703,0.433-1.271,1-1.703,1.704c-0.432,0.705-0.646,1.533-0.646,2.487
		s0.238,1.761,0.717,2.419c0.479,0.659,1.172,1.227,2.084,1.703c0.912,0.478,2.016,0.897,3.312,1.261
		c1.299,0.364,2.768,0.728,4.408,1.091c4.965,1.09,8.678,2.749,11.137,4.974C404.32,71.241,405.551,74.193,405.551,77.873z"/>
	<path fill="#EDE4C0" d="M409.975,89.64c0-0.441,0.168-0.858,0.506-1.248s0.807-0.585,1.404-0.585s1.072,0.195,1.424,0.585
		c0.35,0.39,0.525,0.807,0.525,1.248c0,0.546-0.168,1.014-0.506,1.404c-0.338,0.39-0.82,0.585-1.443,0.585
		c-0.598,0-1.066-0.183-1.404-0.546C410.143,90.719,409.975,90.238,409.975,89.64z"/>
	<path fill="#EDE4C0" d="M435.363,86.208V64.562h2.729v26.871h-2.729c-0.234-0.364-0.6-0.91-1.092-1.638
		c-0.494-0.728-1.061-1.58-1.697-2.555c-0.637-0.976-1.34-2.028-2.105-3.159c-0.768-1.131-1.541-2.287-2.32-3.471
		c-0.781-1.183-1.555-2.34-2.32-3.472c-0.768-1.131-1.477-2.177-2.127-3.139s-1.223-1.801-1.715-2.516
		c-0.494-0.715-0.859-1.241-1.092-1.58h-0.117v21.528h-2.73V64.562h2.652c0.311,0.468,0.838,1.262,1.578,2.379
		c0.742,1.118,1.586,2.393,2.535,3.822s1.957,2.944,3.023,4.543c1.066,1.6,2.08,3.12,3.041,4.563
		c0.963,1.443,1.826,2.736,2.594,3.881c0.768,1.144,1.332,1.963,1.697,2.457H435.363z"/>
	<path fill="#EDE4C0" d="M442.654,91.434V64.562h17.629v2.496h-14.898v9.594h12.793v2.496h-12.793v9.828h14.898v2.457H442.654z"/>
	<path fill="#EDE4C0" d="M473.074,67.098v24.336h-2.729V67.098h-8.113v-2.535h18.877v2.535H473.074z"/>
</g>
<g>
	<polygon fill="#D6CAA6" points="21.25,39.094 72.921,9.379 74.323,26.679 	"/>
</g>
<g>
	<polygon fill="#C7B78D" points="127.882,36.903 72.865,9.04 74.323,26.679 	"/>
</g>
<g>
	<polygon fill="#8C7F5D" points="77.245,129.658 109.866,88.515 127.882,96.792 	"/>
</g>
<g>
	<polygon fill="#968662" points="77.245,129.658 44.622,89.976 23.684,101.014 	"/>
</g>
<g>
	<polygon fill="#C7B78D" points="127.882,36.903 127.882,96.792 109.866,88.515 	"/>
</g>
<g>
	<polygon fill="#847857" points="21.25,39.094 23.684,101.014 44.622,89.976 	"/>
</g>
<g>
	<polygon fill="#B7A278" points="127.882,36.903 109.866,88.515 73.971,26.679 	"/>
</g>
<g>
	<polygon fill="#B7A278" points="21.25,38.79 44.539,89.976 74.323,26.679 	"/>
</g>
<g>
	<polygon fill="#A8956F" points="77.245,129.658 109.866,88.515 44.539,89.976 	"/>
</g>
<g>
	<polygon fill="#9D8C67" points="74.323,26.679 44.622,89.976 109.866,88.514 	"/>
</g>
<g>
	<g>
		<path fill="#FFFFFF" d="M43.825,90.493l30.452-64.896l36.442,63.399L43.825,90.493L43.825,90.493z M74.367,27.76L45.416,89.458
			l63.597-1.425L74.367,27.76L74.367,27.76z"/>
	</g>
	<g>
		<path fill="#FFFFFF" d="M21.363,39.581L21,38.66L73.356,8.552l1.499,18.515L21.363,39.581L21.363,39.581z M72.487,10.206
			L24.445,37.833L73.789,26.29L72.487,10.206L72.487,10.206z"/>
	</g>
	<g>
		<path fill="#FFFFFF" d="M127.788,37.395L74.095,27.098L72.731,8.535l55.376,27.922L127.788,37.395L127.788,37.395z M75.037,26.26
			l49.424,9.479L73.858,10.223L75.037,26.26L75.037,26.26z"/>
	</g>
	<g>
		<path fill="#FFFFFF" d="M77.515,130.078l-0.663-0.73l32.872-41.458l18.881,9.186L77.515,130.078L77.515,130.078z M110.008,89.14
			l-30.489,38.453l47.053-30.395L110.008,89.14L110.008,89.14z"/>
	</g>
	<g>
		<path fill="#FFFFFF" d="M77.01,130.101l-54.195-28.674l21.929-12.09l32.887,40.004L77.01,130.101L77.01,130.101z M24.919,101.409
			l50.356,26.642L44.498,90.614L24.919,101.409L24.919,101.409z"/>
	</g>
	<g>
		<path fill="#FFFFFF" d="M128.382,97.572l-19.138-8.793l18.166-52.041l0.972,0.165V97.572L128.382,97.572z M110.488,88.25
			l16.894,7.762V39.853L110.488,88.25L110.488,88.25z"/>
	</g>
	<g>
		<path fill="#FFFFFF" d="M23.217,101.826L20.75,39.113l0.954-0.228l23.568,51.312L23.217,101.826L23.217,101.826z M21.848,41.595
			l2.305,58.606l19.815-10.447L21.848,41.595L21.848,41.595z"/>
	</g>
	<g>
		<path fill="#FFFFFF" d="M109.977,89.716L73.593,25.983l54.952,10.539L109.977,89.716L109.977,89.716z M75.539,27.375
			l34.217,59.939l17.463-50.028L75.539,27.375L75.539,27.375z"/>
	</g>
	<g>
		<path fill="#FFFFFF" d="M44.531,91.166l-23.99-52.727l54.67-12.476L44.531,91.166L44.531,91.166z M21.958,39.141l22.588,49.644
			l28.886-61.391L21.958,39.141L21.958,39.141z"/>
	</g>
</g>
<g>
	<g>
		<circle fill="#FFFFFF" cx="127.881" cy="36.903" r="1.458"/>
		<path fill="#FFFFFF" d="M127.882,40.361c-1.907,0-3.459-1.551-3.459-3.458s1.552-3.458,3.459-3.458
			c1.906,0,3.457,1.551,3.457,3.458S129.788,40.361,127.882,40.361L127.882,40.361z M127.882,36.361
			c-0.299,0-0.543,0.243-0.543,0.542s0.244,0.542,0.543,0.542c0.298,0,0.541-0.243,0.541-0.542S128.18,36.361,127.882,36.361
			L127.882,36.361z"/>
	</g>
	<g>
		<circle fill="#FFFFFF" cx="109.866" cy="88.515" r="1.457"/>
		<path fill="#FFFFFF" d="M109.866,91.973c-1.906,0-3.457-1.551-3.457-3.458s1.551-3.458,3.457-3.458s3.457,1.551,3.457,3.458
			S111.772,91.973,109.866,91.973L109.866,91.973z M109.866,87.973c-0.299,0-0.543,0.243-0.543,0.542s0.244,0.542,0.543,0.542
			s0.543-0.243,0.543-0.542S110.166,87.973,109.866,87.973L109.866,87.973z"/>
	</g>
	<g>
		<circle fill="#FFFFFF" cx="127.881" cy="96.792" r="1.458"/>
		<path fill="#FFFFFF" d="M127.882,100.25c-1.907,0-3.459-1.551-3.459-3.458c0-1.905,1.552-3.456,3.459-3.456
			c1.906,0,3.457,1.551,3.457,3.456C131.339,98.699,129.788,100.25,127.882,100.25L127.882,100.25z M127.882,96.25
			c-0.299,0-0.543,0.243-0.543,0.542c0,0.3,0.244,0.544,0.543,0.544c0.298,0,0.541-0.244,0.541-0.544
			C128.423,96.493,128.18,96.25,127.882,96.25L127.882,96.25z"/>
	</g>
	<g>
		<circle fill="#FFFFFF" cx="77.243" cy="129.658" r="1.458"/>
		<path fill="#FFFFFF" d="M77.245,133.116c-1.907,0-3.459-1.551-3.459-3.458c0-1.906,1.552-3.457,3.459-3.457
			c1.906,0,3.456,1.551,3.456,3.457C80.701,131.565,79.15,133.116,77.245,133.116L77.245,133.116z M77.245,129.116
			c-0.3,0-0.544,0.243-0.544,0.542c0,0.3,0.244,0.543,0.544,0.543c0.298,0,0.541-0.243,0.541-0.543
			C77.786,129.359,77.543,129.116,77.245,129.116L77.245,129.116z"/>
	</g>
	<g>
		<circle fill="#FFFFFF" cx="44.621" cy="89.976" r="1.457"/>
		<path fill="#FFFFFF" d="M44.622,93.434c-1.907,0-3.458-1.551-3.458-3.458s1.551-3.458,3.458-3.458
			c1.906,0,3.456,1.551,3.456,3.458S46.527,93.434,44.622,93.434L44.622,93.434z M44.622,89.434c-0.3,0-0.544,0.243-0.544,0.542
			s0.244,0.542,0.544,0.542c0.299,0,0.542-0.243,0.542-0.542S44.92,89.434,44.622,89.434L44.622,89.434z"/>
	</g>
	<g>
		<circle fill="#FFFFFF" cx="21.25" cy="39.818" r="1.458"/>
		<path fill="#FFFFFF" d="M21.25,43.275c-1.907,0-3.458-1.551-3.458-3.457s1.551-3.457,3.458-3.457c1.906,0,3.457,1.551,3.457,3.457
			S23.157,43.275,21.25,43.275L21.25,43.275z M21.25,39.275c-0.299,0-0.543,0.244-0.543,0.543s0.244,0.543,0.543,0.543
			c0.299,0,0.542-0.244,0.542-0.543S21.549,39.275,21.25,39.275L21.25,39.275z"/>
	</g>
	<g>
		<circle fill="#FFFFFF" cx="74.322" cy="26.679" r="1.458"/>
		<path fill="#FFFFFF" d="M74.323,30.137c-1.907,0-3.458-1.551-3.458-3.458s1.551-3.458,3.458-3.458
			c1.906,0,3.457,1.551,3.457,3.458S76.229,30.137,74.323,30.137L74.323,30.137z M74.323,26.137c-0.299,0-0.543,0.243-0.543,0.542
			s0.244,0.542,0.543,0.542c0.299,0,0.542-0.243,0.542-0.542S74.622,26.137,74.323,26.137L74.323,26.137z"/>
	</g>
	<g>
		<circle fill="#FFFFFF" cx="72.923" cy="9.379" r="1.458"/>
		<path fill="#FFFFFF" d="M72.923,12.836c-1.907,0-3.458-1.551-3.458-3.457c0-1.907,1.551-3.458,3.458-3.458
			c1.906,0,3.457,1.551,3.457,3.458C76.38,11.285,74.83,12.836,72.923,12.836L72.923,12.836z M72.923,8.836
			c-0.299,0-0.543,0.244-0.543,0.543c0,0.299,0.244,0.542,0.543,0.542c0.299,0,0.542-0.243,0.542-0.542
			C73.465,9.08,73.222,8.836,72.923,8.836L72.923,8.836z"/>
	</g>
	<g>
		<circle fill="#FFFFFF" cx="23.684" cy="101.014" r="1.458"/>
		<path fill="#FFFFFF" d="M23.684,104.471c-1.907,0-3.458-1.551-3.458-3.457c0-1.907,1.551-3.458,3.458-3.458
			s3.458,1.551,3.458,3.458C27.142,102.92,25.591,104.471,23.684,104.471L23.684,104.471z M23.684,100.471
			c-0.299,0-0.542,0.243-0.542,0.543c0,0.299,0.243,0.542,0.542,0.542s0.542-0.243,0.542-0.542
			C24.226,100.714,23.983,100.471,23.684,100.471L23.684,100.471z"/>
	</g>
</g>
<g>
	<g>
		<path fill="#847859" d="M84.08,80.479c-0.804,0.531-1.636,0.962-2.497,1.291c-0.861,0.33-1.729,0.567-2.604,0.711
			c-0.876,0.143-1.7,0.215-2.476,0.215c-1.378,0-2.748-0.201-4.111-0.603s-2.583-0.997-3.659-1.786s-1.952-1.779-2.626-2.971
			c-0.675-1.191-1.012-2.59-1.012-4.197V62.16c0-1.578,0.322-2.977,0.969-4.197c0.646-1.22,1.507-2.239,2.583-3.057
			s2.303-1.435,3.681-1.851s2.798-0.625,4.262-0.625c1.723,0,3.401,0.237,5.037,0.71s3.027,1.213,4.176,2.217l-2.884,4.563
			c-0.919-0.775-1.938-1.313-3.057-1.614c-1.12-0.301-2.182-0.452-3.187-0.452c-0.688,0-1.37,0.094-2.045,0.28
			c-0.674,0.187-1.277,0.495-1.808,0.925c-0.531,0.431-0.969,0.99-1.313,1.679c-0.344,0.688-0.517,1.521-0.517,2.497v8.653
			c0,0.976,0.158,1.802,0.474,2.476s0.732,1.227,1.249,1.657s1.104,0.747,1.765,0.947c0.66,0.201,1.335,0.302,2.023,0.302
			c0.574,0,1.198-0.079,1.873-0.237c0.674-0.157,1.341-0.509,2.002-1.055v-4.95h-4.306v-5.038h10.203v12.485
			C85.615,79.28,84.882,79.947,84.08,80.479z"/>
	</g>
</g>
<g>
	<path fill="#FFFFFF" d="M77.262,131.648L43.489,90.504L19.476,38.97l54.812-13.57l55.251,10.547l-18.562,53.18l-0.131,0.165
		L77.262,131.648L77.262,131.648z M45.688,89.304l31.54,38.364l31.528-39.765l17.469-50.045l-51.867-9.9L23.025,40.667
		L45.688,89.304L45.688,89.304z"/>
</g>
</svg>
